<?xml version="1.0" encoding="utf-8"?>
<!-- Generator: Adobe Illustrator 16.0.0, SVG Export Plug-In . SVG Version: 6.00 Build 0)  -->
<!DOCTYPE svg PUBLIC "-//W3C//DTD SVG 1.1//EN" "http://www.w3.org/Graphics/SVG/1.1/DTD/svg11.dtd">
<svg version="1.1" id="Layer_1" xmlns="http://www.w3.org/2000/svg" xmlns:xlink="http://www.w3.org/1999/xlink" x="0px" y="0px"
	 width="856.714px" height="520.72px" viewBox="0 0 856.714 520.72" enable-background="new 0 0 856.714 520.72"
	 xml:space="preserve">
<path fill="none" stroke="#F7931E" stroke-width="3" stroke-miterlimit="10" d="M180.494,106.376
	c10.37-0.042,18.804,8.325,18.844,18.685c0.041,10.361-8.325,18.804-18.694,18.845c-10.361,0.041-18.794-8.335-18.835-18.696
	C161.768,114.85,170.134,106.417,180.494,106.376z"/>
<path fill="none" stroke="#F7931E" stroke-width="3" stroke-miterlimit="10" d="M117.929,125.384
	c-0.029-7.35,1.203-14.404,3.507-20.963c2.505,6.5,3.894,13.554,3.923,20.934c0.03,7.381-1.292,14.446-3.757,20.965
	C119.246,139.779,117.958,132.735,117.929,125.384z"/>
<path fill="none" stroke="#F7931E" stroke-width="3" stroke-miterlimit="10" d="M61.644,144.378
	c-10.359,0.042-18.793-8.335-18.834-18.695c-0.041-10.359,8.326-18.793,18.686-18.834c10.37-0.041,18.803,8.326,18.845,18.685
	C80.381,135.894,72.014,144.337,61.644,144.378z"/>
<path fill="none" stroke="#F7931E" stroke-width="3" stroke-miterlimit="10" d="M243.205,126.558
	c0.007-0.561,0.015-1.111,0.014-1.671c-0.003-0.56-0.015-1.109-0.027-1.67c-1.146-64.315-53.77-115.967-118.3-115.711
	C60.311,7.762,8.069,59.911,7.514,124.303C8.198,92.46,34.166,66.787,66.195,66.659c25.17-0.1,46.713,15.595,55.241,37.761
	c2.505,6.5,3.894,13.554,3.923,20.934c0.03,7.381-1.292,14.446-3.757,20.965c8.717,24.266,31.976,41.573,59.216,41.467
	C214.857,187.65,242.449,160.39,243.205,126.558z M161.809,125.209c-0.042-10.359,8.325-18.793,18.685-18.833
	c10.37-0.042,18.804,8.325,18.844,18.685c0.041,10.361-8.325,18.804-18.694,18.845C170.283,143.947,161.85,135.57,161.809,125.209z"
	/>
<path fill="none" stroke="#F7931E" stroke-width="3" stroke-miterlimit="10" d="M121.602,146.319
	c-2.356-6.54-3.644-13.584-3.673-20.936c-0.029-7.35,1.203-14.404,3.507-20.963c2.505,6.5,3.894,13.554,3.923,20.934
	C125.389,132.735,124.066,139.8,121.602,146.319z"/>
<path fill="none" stroke="#F7931E" stroke-width="3" stroke-miterlimit="10" d="M180.494,106.376
	c10.37-0.042,18.804,8.325,18.844,18.685c0.041,10.361-8.325,18.804-18.694,18.845c-10.361,0.041-18.794-8.335-18.835-18.696
	C161.768,114.85,170.134,106.417,180.494,106.376z"/>
<path stroke="#F7931E" stroke-width="3" stroke-miterlimit="10" d="M243.205,126.558c-0.756,33.833-28.348,61.093-62.387,61.229
	c-27.24,0.106-50.499-17.201-59.216-41.467c-2.356-6.54-3.644-13.584-3.673-20.936c-0.029-7.35,1.203-14.404,3.507-20.963
	c-8.527-22.167-30.071-37.861-55.241-37.761C34.166,66.787,8.198,92.46,7.514,124.303c-0.007,0.5-0.015,1.01-0.014,1.52
	c0.002,0.511,0.014,1.021,0.026,1.521c1.066,64.386,53.722,116.127,118.302,115.872C190.357,242.958,242.57,190.88,243.205,126.558z
	 M42.81,125.683c-0.041-10.359,8.326-18.793,18.686-18.834c10.37-0.041,18.803,8.326,18.845,18.685
	c0.041,10.36-8.326,18.804-18.696,18.845C51.285,144.419,42.851,136.042,42.81,125.683z"/>
<path fill="#FBB03B" stroke="#F7931E" stroke-width="3" stroke-miterlimit="10" d="M117.929,125.384
	c-0.029-7.35,1.203-14.404,3.507-20.963c2.505,6.5,3.894,13.554,3.923,20.934c0.03,7.381-1.292,14.446-3.757,20.965
	C119.246,139.779,117.958,132.735,117.929,125.384z"/>
<path fill="none" stroke="#F7931E" stroke-width="3" stroke-miterlimit="10" d="M61.644,144.378
	c-10.359,0.042-18.793-8.335-18.834-18.695c-0.041-10.359,8.326-18.793,18.686-18.834c10.37-0.041,18.803,8.326,18.845,18.685
	C80.381,135.894,72.014,144.337,61.644,144.378z"/>
<path stroke="#F7931E" stroke-width="3" stroke-miterlimit="10" d="M180.644,143.906c-10.361,0.041-18.794-8.335-18.835-18.696
	c-0.042-10.359,8.325-18.793,18.685-18.833c10.37-0.042,18.804,8.325,18.844,18.685
	C199.379,135.421,191.013,143.865,180.644,143.906z"/>
<path fill="none" stroke="#F7931E" stroke-width="3" stroke-miterlimit="10" d="M61.644,144.378
	c-10.359,0.042-18.793-8.335-18.834-18.695c-0.041-10.359,8.326-18.793,18.686-18.834c10.37-0.041,18.803,8.326,18.845,18.685
	C80.381,135.894,72.014,144.337,61.644,144.378z"/>
<path stroke="#F7931E" stroke-width="3" stroke-miterlimit="10" d="M131.302,58.101c-10.361,0.042-18.793-8.336-18.834-18.696
	c-0.042-10.359,8.325-18.793,18.686-18.834c10.369-0.041,18.803,8.326,18.844,18.685C150.039,49.616,141.672,58.06,131.302,58.101z"
	/>
<path fill="#FFFFFF" stroke="#F7931E" stroke-width="3" stroke-miterlimit="10" d="M130.966,225.103
	c-10.361,0.042-18.794-8.335-18.835-18.695c-0.041-10.36,8.326-18.793,18.687-18.834c10.369-0.041,18.803,8.326,18.844,18.686
	C149.702,216.619,141.335,225.062,130.966,225.103z"/>
<path fill="none" stroke="#F7931E" stroke-width="3" stroke-miterlimit="10" d="M107.594,346.15c0-10.37,8.4-18.771,18.76-18.771
	c10.36,0,18.771,8.4,18.771,18.771c0,10.359-8.41,18.76-18.771,18.76C115.995,364.91,107.594,356.51,107.594,346.15z"/>
<path fill="none" stroke="#F7931E" stroke-width="3" stroke-miterlimit="10" d="M126.354,408.79c-7.35,0-14.399-1.26-20.949-3.59
	c6.51-2.479,13.569-3.841,20.949-3.841c7.381,0,14.44,1.351,20.95,3.841C140.754,407.53,133.705,408.79,126.354,408.79z"/>
<path fill="none" stroke="#F7931E" stroke-width="3" stroke-miterlimit="10" d="M145.125,465.15c0,10.359-8.41,18.76-18.771,18.76
	c-10.359,0-18.76-8.4-18.76-18.76c0-10.37,8.4-18.771,18.76-18.771C136.714,446.38,145.125,454.78,145.125,465.15z"/>
<path fill="none" stroke="#F7931E" stroke-width="3" stroke-miterlimit="10" d="M128.025,283.52c-0.561-0.01-1.11-0.02-1.671-0.02
	c-0.56,0-1.109,0.01-1.67,0.02C60.365,284.41,8.504,336.83,8.504,401.359c0,64.581,51.94,117.03,116.33,117.841
	c-31.84-0.811-57.41-26.88-57.41-58.91c0-25.17,15.78-46.65,37.98-55.09c6.51-2.479,13.569-3.841,20.949-3.841
	c7.381,0,14.44,1.351,20.95,3.841c24.3-8.62,41.7-31.81,41.7-59.05C189.004,312.109,161.854,284.41,128.025,283.52z M126.354,364.91
	c-10.359,0-18.76-8.4-18.76-18.76c0-10.37,8.4-18.771,18.76-18.771c10.36,0,18.771,8.4,18.771,18.771
	C145.125,356.51,136.714,364.91,126.354,364.91z"/>
<path fill="none" stroke="#F7931E" stroke-width="3" stroke-miterlimit="10" d="M147.304,405.2c-6.55,2.33-13.6,3.59-20.95,3.59
	c-7.35,0-14.399-1.26-20.949-3.59c6.51-2.479,13.569-3.841,20.949-3.841C133.735,401.359,140.794,402.71,147.304,405.2z"/>
<path fill="none" stroke="#F7931E" stroke-width="3" stroke-miterlimit="10" d="M107.594,346.15c0-10.37,8.4-18.771,18.76-18.771
	c10.36,0,18.771,8.4,18.771,18.771c0,10.359-8.41,18.76-18.771,18.76C115.995,364.91,107.594,356.51,107.594,346.15z"/>
<path stroke="#F7931E" stroke-width="3" stroke-miterlimit="10" d="M128.025,283.52c33.829,0.891,60.979,28.59,60.979,62.631
	c0,27.24-17.4,50.43-41.7,59.05c-6.55,2.33-13.6,3.59-20.95,3.59c-7.35,0-14.399-1.26-20.949-3.59
	c-22.2,8.439-37.98,29.92-37.98,55.09c0,32.03,25.57,58.1,57.41,58.91c0.5,0.01,1.01,0.02,1.52,0.02c0.511,0,1.021-0.01,1.521-0.02
	c64.39-0.811,116.34-53.26,116.34-117.841C244.214,336.83,192.344,284.41,128.025,283.52z M126.354,483.91
	c-10.359,0-18.76-8.4-18.76-18.76c0-10.37,8.4-18.771,18.76-18.771c10.36,0,18.771,8.4,18.771,18.771
	C145.125,475.51,136.714,483.91,126.354,483.91z"/>
<path fill="#FBB03B" stroke="#F7931E" stroke-width="3" stroke-miterlimit="10" d="M126.354,408.79c-7.35,0-14.399-1.26-20.949-3.59
	c6.51-2.479,13.569-3.841,20.949-3.841c7.381,0,14.44,1.351,20.95,3.841C140.754,407.53,133.705,408.79,126.354,408.79z"/>
<path fill="none" stroke="#F7931E" stroke-width="3" stroke-miterlimit="10" d="M145.125,465.15c0,10.359-8.41,18.76-18.771,18.76
	c-10.359,0-18.76-8.4-18.76-18.76c0-10.37,8.4-18.771,18.76-18.771C136.714,446.38,145.125,454.78,145.125,465.15z"/>
<path stroke="#F7931E" stroke-width="3" stroke-miterlimit="10" d="M145.125,346.15c0,10.359-8.41,18.76-18.771,18.76
	c-10.359,0-18.76-8.4-18.76-18.76c0-10.37,8.4-18.771,18.76-18.771C136.714,327.38,145.125,335.78,145.125,346.15z"/>
<path fill="none" stroke="#F7931E" stroke-width="3" stroke-miterlimit="10" d="M145.125,465.15c0,10.359-8.41,18.76-18.771,18.76
	c-10.359,0-18.76-8.4-18.76-18.76c0-10.37,8.4-18.771,18.76-18.771C136.714,446.38,145.125,454.78,145.125,465.15z"/>
<path stroke="#F7931E" stroke-width="3" stroke-miterlimit="10" d="M59.125,395.149c0,10.361-8.41,18.761-18.771,18.761
	c-10.359,0-18.76-8.399-18.76-18.761c0-10.369,8.4-18.77,18.76-18.77C50.714,376.38,59.125,384.78,59.125,395.149z"/>
<path fill="#FFFFFF" stroke="#F7931E" stroke-width="3" stroke-miterlimit="10" d="M226.125,396.149
	c0,10.361-8.41,18.761-18.771,18.761c-10.359,0-18.76-8.399-18.76-18.761c0-10.369,8.4-18.77,18.76-18.77
	C217.714,377.38,226.125,385.78,226.125,396.149z"/>
<path fill="none" stroke="#F7931E" stroke-width="3" stroke-miterlimit="10" d="M786.495,377.376
	c10.369-0.042,18.803,8.325,18.844,18.685c0.041,10.361-8.325,18.805-18.694,18.846c-10.361,0.041-18.794-8.336-18.835-18.697
	C767.768,385.85,776.133,377.416,786.495,377.376z"/>
<path fill="none" stroke="#F7931E" stroke-width="3" stroke-miterlimit="10" d="M723.929,396.384
	c-0.029-7.35,1.202-14.403,3.507-20.964c2.506,6.501,3.895,13.555,3.923,20.935c0.03,7.381-1.292,14.446-3.757,20.965
	C725.247,410.779,723.958,403.734,723.929,396.384z"/>
<path fill="none" stroke="#F7931E" stroke-width="3" stroke-miterlimit="10" d="M667.644,415.378
	c-10.359,0.042-18.794-8.335-18.835-18.695c-0.041-10.359,8.326-18.794,18.686-18.835c10.37-0.041,18.804,8.326,18.846,18.686
	C686.381,406.894,678.014,415.337,667.644,415.378z"/>
<path fill="none" stroke="#F7931E" stroke-width="3" stroke-miterlimit="10" d="M849.206,397.558
	c0.007-0.562,0.015-1.11,0.014-1.671c-0.004-0.56-0.016-1.109-0.027-1.67c-1.146-64.315-53.771-115.967-118.301-115.711
	c-64.58,0.256-116.822,52.404-117.377,116.797c0.684-31.842,26.651-57.516,58.682-57.644c25.17-0.101,46.713,15.595,55.24,37.761
	c2.506,6.501,3.895,13.555,3.923,20.935c0.03,7.381-1.292,14.446-3.757,20.965c8.717,24.266,31.976,41.573,59.216,41.467
	C820.858,458.65,848.449,431.391,849.206,397.558z M767.809,396.209c-0.041-10.359,8.324-18.793,18.686-18.833
	c10.369-0.042,18.803,8.325,18.844,18.685c0.041,10.361-8.325,18.805-18.694,18.846C776.283,414.947,767.85,406.57,767.809,396.209z
	"/>
<path fill="none" stroke="#F7931E" stroke-width="3" stroke-miterlimit="10" d="M727.602,417.319
	c-2.355-6.54-3.644-13.585-3.673-20.936c-0.029-7.35,1.202-14.403,3.507-20.964c2.506,6.501,3.895,13.555,3.923,20.935
	C731.389,403.735,730.067,410.801,727.602,417.319z"/>
<path fill="none" stroke="#F7931E" stroke-width="3" stroke-miterlimit="10" d="M786.495,377.376
	c10.369-0.042,18.803,8.325,18.844,18.685c0.041,10.361-8.325,18.805-18.694,18.846c-10.361,0.041-18.794-8.336-18.835-18.697
	C767.768,385.85,776.133,377.416,786.495,377.376z"/>
<path stroke="#F7931E" stroke-width="3" stroke-miterlimit="10" d="M849.206,397.558c-0.757,33.833-28.348,61.093-62.388,61.229
	c-27.24,0.106-50.499-17.201-59.216-41.467c-2.355-6.54-3.644-13.585-3.673-20.936c-0.029-7.35,1.202-14.403,3.507-20.964
	c-8.527-22.166-30.07-37.861-55.24-37.761c-32.03,0.128-57.998,25.802-58.682,57.644c-0.008,0.5-0.016,1.01-0.014,1.52
	c0.002,0.511,0.014,1.021,0.025,1.521c1.066,64.386,53.722,116.128,118.302,115.872C796.357,513.958,848.571,461.88,849.206,397.558
	z M648.809,396.683c-0.041-10.359,8.326-18.794,18.686-18.835c10.37-0.041,18.804,8.326,18.846,18.686
	c0.041,10.36-8.326,18.804-18.696,18.845C657.285,415.42,648.85,407.043,648.809,396.683z"/>
<path fill="#FBB03B" stroke="#F7931E" stroke-width="3" stroke-miterlimit="10" d="M723.929,396.384
	c-0.029-7.35,1.202-14.403,3.507-20.964c2.506,6.501,3.895,13.555,3.923,20.935c0.03,7.381-1.292,14.446-3.757,20.965
	C725.247,410.779,723.958,403.734,723.929,396.384z"/>
<path fill="none" stroke="#F7931E" stroke-width="3" stroke-miterlimit="10" d="M667.644,415.378
	c-10.359,0.042-18.794-8.335-18.835-18.695c-0.041-10.359,8.326-18.794,18.686-18.835c10.37-0.041,18.804,8.326,18.846,18.686
	C686.381,406.894,678.014,415.337,667.644,415.378z"/>
<path stroke="#F7931E" stroke-width="3" stroke-miterlimit="10" d="M786.644,414.906c-10.361,0.041-18.794-8.336-18.835-18.697
	c-0.041-10.359,8.324-18.793,18.686-18.833c10.369-0.042,18.803,8.325,18.844,18.685
	C805.379,406.422,797.013,414.865,786.644,414.906z"/>
<path fill="none" stroke="#F7931E" stroke-width="3" stroke-miterlimit="10" d="M667.644,415.378
	c-10.359,0.042-18.794-8.335-18.835-18.695c-0.041-10.359,8.326-18.794,18.686-18.835c10.37-0.041,18.804,8.326,18.846,18.686
	C686.381,406.894,678.014,415.337,667.644,415.378z"/>
<path stroke="#F7931E" stroke-width="3" stroke-miterlimit="10" d="M737.302,329.102c-10.36,0.041-18.794-8.337-18.835-18.697
	c-0.041-10.358,8.325-18.793,18.687-18.834c10.368-0.041,18.803,8.326,18.844,18.686
	C756.039,320.616,747.672,329.06,737.302,329.102z"/>
<path fill="#FFFFFF" stroke="#F7931E" stroke-width="3" stroke-miterlimit="10" d="M736.965,496.104
	c-10.36,0.041-18.793-8.336-18.835-18.695c-0.04-10.36,8.325-18.793,18.687-18.835c10.369-0.041,18.803,8.326,18.844,18.686
	C755.702,487.619,747.334,496.062,736.965,496.104z"/>
<path fill="none" stroke="#F7931E" stroke-width="3" stroke-miterlimit="10" d="M731.354,131.79c-7.35,0-14.399-1.26-20.949-3.59
	c6.51-2.479,13.569-3.841,20.949-3.841c7.381,0,14.44,1.351,20.95,3.841C745.754,130.53,738.705,131.79,731.354,131.79z"/>
<path fill="none" stroke="#F7931E" stroke-width="3" stroke-miterlimit="10" d="M750.125,188.15c0,10.359-8.41,18.76-18.771,18.76
	c-10.359,0-18.76-8.4-18.76-18.76c0-10.37,8.4-18.771,18.76-18.771C741.714,169.38,750.125,177.78,750.125,188.15z"/>
<path fill="none" stroke="#F7931E" stroke-width="3" stroke-miterlimit="10" d="M733.025,6.52c-0.561-0.01-1.11-0.02-1.671-0.02
	c-0.56,0-1.109,0.01-1.67,0.02c-64.319,0.891-116.18,53.311-116.18,117.84c0,64.581,51.94,117.03,116.33,117.841
	c-31.84-0.811-57.41-26.88-57.41-58.91c0-25.17,15.78-46.65,37.98-55.09c6.51-2.479,13.569-3.841,20.949-3.841
	c7.381,0,14.44,1.351,20.95,3.841c24.3-8.62,41.7-31.81,41.7-59.05C794.004,35.109,766.854,7.41,733.025,6.52z M731.354,87.91
	c-10.359,0-18.76-8.4-18.76-18.76c0-10.37,8.4-18.771,18.76-18.771c10.36,0,18.771,8.4,18.771,18.771
	C750.125,79.51,741.714,87.91,731.354,87.91z"/>
<path fill="none" stroke="#F7931E" stroke-width="3" stroke-miterlimit="10" d="M752.304,128.2c-6.55,2.33-13.6,3.59-20.95,3.59
	c-7.35,0-14.399-1.26-20.949-3.59c6.51-2.479,13.569-3.841,20.949-3.841C738.735,124.359,745.794,125.71,752.304,128.2z"/>
<path stroke="#F7931E" stroke-width="3" stroke-miterlimit="10" d="M733.025,6.52c33.829,0.891,60.979,28.59,60.979,62.631
	c0,27.24-17.4,50.43-41.7,59.05c-6.55,2.33-13.6,3.59-20.95,3.59c-7.35,0-14.399-1.26-20.949-3.59
	c-22.2,8.439-37.98,29.92-37.98,55.09c0,32.03,25.57,58.1,57.41,58.91c0.5,0.01,1.01,0.02,1.52,0.02c0.511,0,1.021-0.01,1.521-0.02
	c64.39-0.811,116.34-53.26,116.34-117.841C849.214,59.83,797.344,7.41,733.025,6.52z M731.354,206.91
	c-10.359,0-18.76-8.4-18.76-18.76c0-10.37,8.4-18.771,18.76-18.771c10.36,0,18.771,8.4,18.771,18.771
	C750.125,198.51,741.714,206.91,731.354,206.91z"/>
<path fill="#FBB03B" stroke="#F7931E" stroke-width="3" stroke-miterlimit="10" d="M731.354,131.79c-7.35,0-14.399-1.26-20.949-3.59
	c6.51-2.479,13.569-3.841,20.949-3.841c7.381,0,14.44,1.351,20.95,3.841C745.754,130.53,738.705,131.79,731.354,131.79z"/>
<path fill="none" stroke="#F7931E" stroke-width="3" stroke-miterlimit="10" d="M750.125,188.15c0,10.359-8.41,18.76-18.771,18.76
	c-10.359,0-18.76-8.4-18.76-18.76c0-10.37,8.4-18.771,18.76-18.771C741.714,169.38,750.125,177.78,750.125,188.15z"/>
<path stroke="#F7931E" stroke-width="3" stroke-miterlimit="10" d="M750.125,69.15c0,10.359-8.41,18.76-18.771,18.76
	c-10.359,0-18.76-8.4-18.76-18.76c0-10.37,8.4-18.771,18.76-18.771C741.714,50.38,750.125,58.78,750.125,69.15z"/>
<path fill="none" stroke="#F7931E" stroke-width="3" stroke-miterlimit="10" d="M750.125,188.15c0,10.359-8.41,18.76-18.771,18.76
	c-10.359,0-18.76-8.4-18.76-18.76c0-10.37,8.4-18.771,18.76-18.771C741.714,169.38,750.125,177.78,750.125,188.15z"/>
<path stroke="#F7931E" stroke-width="3" stroke-miterlimit="10" d="M664.125,118.149c0,10.361-8.41,18.761-18.771,18.761
	c-10.359,0-18.76-8.399-18.76-18.761c0-10.369,8.4-18.77,18.76-18.77C655.714,99.38,664.125,107.78,664.125,118.149z"/>
<path fill="#FFFFFF" stroke="#F7931E" stroke-width="3" stroke-miterlimit="10" d="M831.125,119.149
	c0,10.361-8.41,18.761-18.771,18.761c-10.359,0-18.76-8.399-18.76-18.761c0-10.369,8.4-18.77,18.76-18.77
	C822.714,100.38,831.125,108.78,831.125,119.149z"/>
<path stroke="#000000" stroke-miterlimit="10" d="M481.977,171.5h-83.02C423.741,148.5,457.438,148.5,481.977,171.5z"/>
<path fill="#C69C6D" stroke="#000000" stroke-miterlimit="10" d="M501.849,285.329c-3.384,7.461-7.703,14.427-12.959,20.619
	c-28.296,33.386-73.279,31.825-100.02-3.488c-4.962-6.552-8.366-13.81-12.366-21.494v-0.012c0-0.056,0.327-0.112,0.316-0.168
	c-10.095-26.003-9.316-56.875,2.684-82.094v-0.011c0-0.022-0.129-0.045-0.119-0.067c3.373-7.427,7.526-14.061,12.77-20.231
	c2.21-2.614,4.402-4.883,6.804-6.883h83.018c3.429,2,6.688,6.377,9.711,10.371c4.939,6.518,8.92,13.582,11.954,21.222
	c0.023,0.045,0.045,0.049,0.057,0.094C513.997,229.224,513.308,260.056,501.849,285.329z"/>
<path fill="#8CC63F" stroke="#000000" stroke-miterlimit="10" d="M514.514,275.727c-3.756,4.432-8.076,7.629-12.665,9.603
	c11.459-25.273,12.147-56.134,1.85-82.172c-0.012-0.045-0.033-0.079-0.057-0.124c4.511,2.289,8.706,5.8,12.271,10.5
	C529.289,231.191,528.658,259.035,514.514,275.727z"/>
<path fill="#29ABE2" stroke="#000000" stroke-miterlimit="10" d="M501.849,285.329c-12.688,5.486-27.35,1.627-37.173-11.352
	c-13.375-17.658-12.744-45.501,1.399-62.193c10.375-12.25,25.149-15.089,37.566-8.75c0.023,0.045,0.045,0.079,0.057,0.124
	C513.997,229.195,513.308,260.056,501.849,285.329z"/>
<path fill="#8CC63F" stroke="#000000" stroke-miterlimit="10" d="M379.386,198.614c-0.011,0.022,0.119,0.045,0.119,0.067v0.011
	c-12,25.218-12.558,56.09-2.464,82.094c-4.365-2.289-8.5-5.722-11.963-10.298c-13.376-17.658-12.707-45.5,1.437-62.193
	C370.315,203.819,374.74,200.588,379.386,198.614z"/>
<path fill="#29ABE2" stroke="#000000" stroke-miterlimit="10" d="M414.839,272.227c-10.477,12.373-25.303,15.145-37.798,8.56
	c-10.094-26.003-9.536-56.875,2.464-82.094v-0.011c0-0.022-0.129-0.045-0.119-0.067c12.654-5.385,27.138-1.503,36.927,11.42
	C429.689,227.691,428.992,255.535,414.839,272.227z"/>
<path stroke="#29ABE2" stroke-miterlimit="10" d="M397.865,249.822c-4.231,4.992-10.904,4.758-14.904-0.522
	c-4-5.28-3.813-13.608,0.418-18.6c4.231-4.993,10.903-4.759,14.904,0.521C402.283,236.502,402.096,244.83,397.865,249.822z"/>
<path stroke="#29ABE2" stroke-miterlimit="10" d="M497.536,253.316c-4.23,4.991-10.904,4.758-14.904-0.522
	s-3.813-13.608,0.418-18.601c4.232-4.991,10.905-4.758,14.905,0.521C501.954,239.997,501.766,248.324,497.536,253.316z"/>
<ellipse fill="#8CC63F" stroke="#29ABE2" stroke-miterlimit="10" cx="490.292" cy="243.754" rx="4.526" ry="5.649"/>
<ellipse fill="#8CC63F" stroke="#29ABE2" stroke-miterlimit="10" cx="390.794" cy="240.466" rx="4.527" ry="5.648"/>
<line fill="none" stroke="#29ABE2" stroke-miterlimit="10" x1="482.394" y1="171.264" x2="482.394" y2="171.264"/>
<line fill="none" stroke="#29ABE2" stroke-miterlimit="10" x1="398.937" y1="171.264" x2="398.937" y2="171.264"/>
<g>
	<g>
		<g>
			<path opacity="0.1091" d="M434.155,251.856c0.965,4.85,2.152,9.607,3.362,14.402c1.228,4.865,1.65,9.531,1.714,14.526
				c0.015-0.119,0.029-0.236,0.042-0.355c-0.127,0.804-0.254,1.608-0.382,2.412c0.02-0.117,0.039-0.235,0.057-0.354
				c-0.176,0.896-0.35,1.791-0.526,2.688c0.023-0.117,0.047-0.234,0.071-0.352c-0.653,2.492-1.361,4.594-2.595,6.857
				c2.156-1.872,4.312-3.744,6.468-5.616c-3.244,2.61-6.489,5.221-9.733,7.83c3.455-1.894,6.909-3.789,10.364-5.684
				c-4.496,0.749-8.991,1.499-13.487,2.248c3.593,0.393,7.188,0.786,10.782,1.181c-0.188-0.162-0.375-0.322-0.562-0.484
				c0.08,0.087,0.159,0.173,0.238,0.259c-2.556-4.648-5.113-9.297-7.669-13.946c-0.09-0.089-0.182-0.178-0.271-0.266
				c-0.375,0.86-0.75,1.722-1.125,2.582c-0.718,1.648-1.337,3.335-1.856,5.057c-0.271,1.933-0.219,3.854,0.157,5.766
				c0.256,1.362,0.933,2.447,2.029,3.253c0.407,0.136,0.817,0.108,1.23-0.084c1.452-0.403,2.893-0.841,4.323-1.313
				c1.437-0.454,2.861-0.941,4.272-1.465c0.449-0.087,0.797-0.305,1.049-0.651c0.656-1.114,1.673-2.549,2.144-3.817
				c1.276-3.444,1.68-6.782,1.982-10.43c0.413-4.998-0.325-9.995-1.125-14.908c-1-6.152-2.437-12.206-3.369-18.373
				c-0.426,0.111-0.767,0.363-1.023,0.756c-1.046,1.149-2.066,2.324-3.058,3.521c-1.007,1.185-1.987,2.393-2.937,3.624
				C434.379,251.037,434.189,251.418,434.155,251.856z"/>
			<path opacity="0.1091" d="M434.383,253.792c0.97,4.879,2.159,9.664,3.384,14.485c0.339,1.604,0.678,3.207,1.018,4.811
				c0.623,3.206,0.856,6.439,0.702,9.701c0.003-0.12,0.004-0.239,0.007-0.358c-0.644,3.943-1.441,7.568-3.398,11.084
				c0.606-0.723,1.214-1.444,1.82-2.167c-0.9,0.996-1.799,1.993-2.699,2.989c2.287-2.046,4.575-4.093,6.861-6.139
				c-2.836,2.267-5.673,4.53-8.511,6.796c2.507-1.759,5.015-3.52,7.521-5.278c-2.897,1.642-5.794,3.284-8.691,4.926
				c2.756-1.225,5.51-2.45,8.266-3.675c-2.599,0.702-5.198,1.402-7.798,2.103c2.247-0.48,4.491-0.962,6.736-1.443
				c-0.277-0.174-0.554-0.345-0.83-0.518c0.324-4.459-1.621-8.404-5.837-11.837c-0.082-0.066-0.164-0.133-0.245-0.198
				c-0.764,1.576-1.467,3.181-2.108,4.812c-0.282,0.823-0.563,1.646-0.846,2.468c-1.031,3.821,0.559,6.827,4.77,9.021
				c0.3,0.362,8.111-6.354,8.572-7.433c1.439-3.379,2.17-6.908,2.332-10.585c0.22-5.056-0.224-9.858-1.032-14.863
				c-1.008-6.233-2.53-12.352-3.481-18.601c-0.413,0.162-0.723,0.454-0.932,0.874c-0.911,1.269-1.791,2.559-2.64,3.87
				c-0.868,1.3-1.702,2.618-2.508,3.956C434.513,252.949,434.369,253.35,434.383,253.792z"/>
			<path opacity="0.1091" d="M430.996,253.83c0.889,3.051,1.934,6.047,3.135,8.989c0.417,1.622,0.833,3.244,1.25,4.866
				c0.839,3.16,1.379,6.37,1.623,9.629c0.217,3.024-0.108,5.961-0.98,8.813c-0.797,3.141-2.103,5.508-4.631,7.689
				c0.381-0.224,0.76-0.446,1.139-0.669c-0.911,0.341-1.822,0.681-2.732,1.021c0.505-0.089,1.011-0.176,1.517-0.265
				c-0.767-4.415-1.534-8.83-2.3-13.245c0.602-1.639,1.351-3.209,2.247-4.709c0.31-0.58,0.067-1.562-0.031-2.169
				c-0.004-0.026-0.266-1.222-0.604-0.684c-1.75,2.797-3.164,5.477-4.38,8.544c-0.313,1.217-0.527,2.454-0.645,3.712
				c-0.28,2.175-0.017,4.275,0.786,6.304c0.264,0.989,1.982,3.186,3.261,3.241c0.922,0.04,2.01-0.46,2.793-0.872
				c3.717-1.964,4.779-7.034,5.636-10.729c0.909-3.916,0.244-7.878-0.232-11.812c-0.634-3.269-1.381-6.512-2.239-9.73
				c-1.329-2.764-2.533-5.581-3.616-8.452C431.738,252.675,430.856,253.393,430.996,253.83z"/>
			<path opacity="0.1091" d="M431.709,258.781c1.403,6.443,3.24,12.766,4.653,19.209c1.532,6.983,0.542,14.156-3.354,20.127
				c0.506-0.641,1.013-1.283,1.52-1.925c-1.016,0.779-2.03,1.56-3.046,2.339c0.152,0.013,0.303,0.023,0.456,0.036
				c-0.537-0.364-1.073-0.729-1.61-1.091c-1.242-1.098-2.111-2.441-2.609-4.033c-0.197-0.984-0.395-1.97-0.591-2.954
				c0.223-4.475,1.647-8.411,4.27-11.811c0.266-0.408-0.512-0.579-0.742-0.217c-1.218,1.787-2.317,3.645-3.3,5.571
				c-0.717,0.943-1.179,1.972-1.387,3.082c-0.184,1.188-0.352,2.378-0.504,3.571c-0.223,2.184,0.048,4.303,0.812,6.354
				c0.212,0.829,2.119,3.871,3.459,3.513c1.992-0.533,2.745-0.933,4.183-2.507c2.947-3.223,4.118-7.281,4.944-11.469
				c0.562-2.843,0.36-4.067,0.28-7.437c-0.284-3.275-0.851-6.5-1.701-9.676c-1.034-4.673-2.38-9.25-3.359-13.939
				c-0.15-0.72-0.97,0.579-0.984,0.599C432.746,256.654,431.554,258.067,431.709,258.781z"/>
			<path opacity="0.1091" d="M433.702,254.571c0.988,4.879,2.197,9.665,3.426,14.487c0.34,1.604,0.68,3.208,1.02,4.811
				c0.622,3.204,0.851,6.435,0.689,9.694c0.018-0.141,0.034-0.283,0.051-0.425c-0.652,3.93-1.45,7.546-3.415,11.044
				c0.767-0.896,1.532-1.793,2.298-2.689c-1.006,1.111-2.013,2.223-3.019,3.334c2.832-2.591,5.664-5.184,8.496-7.775
				c-3.383,2.804-6.766,5.606-10.148,8.409c3.068-2.266,6.139-4.529,9.208-6.796c-3.411,2.116-6.821,4.233-10.231,6.35
				c3.495-1.63,6.99-3.257,10.483-4.885c-3.934-1.032-7.869-2.063-11.804-3.095c-0.428-0.201-0.854-0.235-1.28-0.106
				c2.37-5.515,2.689-6.324,0.958-2.43c-0.319,0.81-0.638,1.62-0.958,2.43c-0.966,3.722,0.484,6.771,4.352,9.15
				c0.148,0.202,10.165-8.25,10.748-9.837c1.561-4.257,1.882-8.615,1.995-13.128c0.104-4.172-0.559-8.248-1.235-12.345
				c-1.023-6.2-2.433-12.302-3.337-18.525c-0.483,0.246-0.855,0.621-1.117,1.125c-1.145,1.588-2.26,3.197-3.344,4.828
				c-1.102,1.618-2.173,3.257-3.214,4.917C433.957,253.545,433.749,254.031,433.702,254.571z"/>
			<path opacity="0.1091" d="M434.291,252.553c0.972,4.857,2.163,9.623,3.375,14.424c1.229,4.865,1.653,9.526,1.715,14.522
				c0.015-0.128,0.029-0.254,0.042-0.381c-0.628,3.977-1.421,7.649-3.359,11.208c2.736-2.577,5.471-5.154,8.208-7.731
				c-3.814,3.307-7.628,6.613-11.442,9.92c3.528-2.192,7.055-4.386,10.583-6.579c-4.25,1.68-8.5,3.359-12.75,5.04
				c3.538-0.613,7.077-1.225,10.615-1.837c-2.062-0.508-4.126-1.016-6.188-1.523c1.854,0.597,3.706,1.194,5.559,1.792
				c-2.642-4.348-5.284-8.694-7.927-13.042c-0.093-0.083-0.186-0.168-0.278-0.252c-0.366,0.839-0.729,1.679-1.094,2.518
				c-0.705,1.612-1.316,3.258-1.835,4.938c-0.266,1.874-0.229,3.741,0.105,5.6c0.229,1.328,0.858,2.41,1.884,3.247
				c0.577,0.636,5.406-1.68,5.69-1.789c1.469-0.556,2.922-1.144,4.363-1.767c0.457-0.114,0.808-0.356,1.056-0.727
				c0.627-1.179,1.578-2.65,2.044-3.957c1.245-3.474,1.621-6.839,1.902-10.504c0.385-5.009-0.36-10.021-1.167-14.944
				c-1.012-6.166-2.417-12.237-3.331-18.422c-0.447,0.162-0.798,0.459-1.052,0.893c-1.074,1.312-2.118,2.645-3.134,4.002
				c-1.032,1.344-2.036,2.709-3.009,4.097C434.519,251.66,434.326,252.078,434.291,252.553z"/>
			<path opacity="0.1091" d="M432.57,256.51c1.65,7.978,4.05,15.697,5.112,23.807c0.7,5.344-0.901,11.187-3.628,15.748
				c0.882-1.046,1.763-2.093,2.645-3.139c-1.257,1.346-2.515,2.69-3.771,4.036c1.652-1.518,3.304-3.035,4.956-4.553
				c-2.211,1.696-4.423,3.393-6.637,5.088c2.025-1.361,4.05-2.724,6.075-4.086c-2.051-1.37-4.101-2.74-6.152-4.11
				c-0.61-2.301-0.705-4.644-0.281-7.028c0.072-0.771,0.028-1.562-0.047-2.331c0.017,0.159-0.273-1.559-0.573-0.87
				c-1.206,2.761-2.217,5.499-3.149,8.363c-0.398,1.962-0.454,3.932-0.166,5.909c0.242,1.626,0.969,2.981,2.182,4.065
				c1.115,1.36,3.02,0.894,4.195-0.009c1.75-1.341,3.472-2.923,4.957-4.551c1.279-1.4,1.86-3.207,2.518-4.932
				c1.173-3.079,1.308-6.66,1.531-9.91c0.184-2.692-0.499-7.557-1.037-10.198c-1.279-6.263-2.777-12.446-3.812-18.756
				c-0.34,0.075-0.595,0.28-0.764,0.616c-0.7,0.946-1.37,1.916-2.01,2.904C434.248,253.281,432.347,255.438,432.57,256.51z"/>
			<path opacity="0.1091" d="M432.448,254.695c0.699,3.217,1.547,6.395,2.542,9.532c1.399,4.793,2.284,9.56,2.875,14.507
				c0.654,5.469-1.153,12.487-5.353,16.262c0.426-0.275,0.853-0.551,1.279-0.826c-0.886,0.388-1.77,0.776-2.655,1.164
				c0.37-0.091,0.741-0.184,1.112-0.275c-3.716-3.695-4.575-8.142-2.576-13.333c0.666-1.765,1.484-3.455,2.454-5.073
				c0.188-0.352,0.008-1.192-0.044-1.56c-0.007-0.057-0.274-1.039-0.57-0.563c-1.257,1.834-2.351,3.761-3.281,5.779
				c-0.542,0.957-0.927,1.964-1.158,3.017c-0.484,2.928-1.503,7.14,0.303,9.892c0.503,0.77,1.791,3.273,3.176,3.116
				c1-0.111,2.018-0.479,2.843-1.059c3.622-2.548,4.778-6.992,5.716-11.07c0.908-3.95,0.252-7.947-0.219-11.917
				c-0.641-3.264-1.391-6.504-2.252-9.716c-1.024-3.063-1.914-6.163-2.671-9.302C433.774,252.524,432.331,254.208,432.448,254.695z"
				/>
			<path opacity="0.1091" d="M433.46,256.438c0.584,3.25,1.32,6.465,2.209,9.646c1.23,4.841,2.253,9.519,2.905,14.474
				c-0.005-0.122-0.01-0.245-0.014-0.367c0.325,2.318,0.226,4.604-0.3,6.853c-0.572,3.236-1.495,5.998-3.173,8.896
				c1.734-2.151,3.469-4.306,5.203-6.458c-2.05,2.392-4.101,4.782-6.151,7.174c2.365-2.365,4.732-4.729,7.098-7.095
				c-3.345,2.348-6.692,4.693-10.038,7.041c2.494-1.369,4.988-2.738,7.482-4.106c-0.677,0.169-1.354,0.339-2.03,0.508
				c0.321-0.006,0.642-0.01,0.963-0.016c-1.275-0.313-1.925-1.06-1.955-2.238c-0.687-1.44-1.52-2.8-2.501-4.078
				c0.184,0.444,0.368,0.89,0.551,1.334c-0.428-1.918-0.854-3.835-1.282-5.754c0.054,0.241-0.471-2.321-0.831-1.423
				c-0.964,2.408-1.867,4.81-2.68,7.275c-0.365,1.817-0.443,3.646-0.232,5.484c0.172,1.465,0.76,2.725,1.765,3.782
				c0.998,1.398,2.143,0.627,3.394,0.266c0.754-0.551,1.448-1.173,2.078-1.867c1.268-1.263,2.518-2.543,3.75-3.841
				c1.473-1.561,1.892-2.277,2.853-4.269c1.488-3.084,1.544-7.136,1.777-10.479c0.293-4.244-0.392-8.436-1.056-12.612
				c-0.561-3.174-1.214-6.328-1.963-9.463c-0.654-3.035-1.185-6.091-1.59-9.168c-0.412,0.191-0.715,0.508-0.909,0.948
				c-0.875,1.351-1.719,2.721-2.532,4.111c-0.829,1.379-1.627,2.775-2.395,4.191C433.564,255.566,433.432,255.984,433.46,256.438z"
				/>
			<path opacity="0.1091" d="M433.845,253.541c0.981,4.868,2.183,9.643,3.405,14.454c1.236,4.865,1.654,9.521,1.711,14.517
				c0.018-0.136,0.035-0.27,0.053-0.404c-0.133,0.814-0.266,1.629-0.399,2.443c0.022-0.135,0.044-0.269,0.066-0.401
				c-0.181,0.905-0.361,1.812-0.542,2.717c0.028-0.133,0.054-0.266,0.082-0.398c-0.898,3.38-1.593,5.582-4.1,8.319
				c3.077-2.635,6.154-5.271,9.23-7.906c-3.377,2.593-6.754,5.186-10.133,7.776c3.393-2.227,6.786-4.455,10.179-6.683
				c-4.368,1.876-8.735,3.751-13.104,5.625c3.664-0.826,7.326-1.652,10.99-2.48c-1.211-0.245-2.42-0.489-3.632-0.736
				c1.011,0.309,2.021,0.616,3.03,0.925c0.043-0.124,0.084-0.249,0.126-0.374c0.204-0.601-5.585-2.684-5.594-2.687
				c0.141,0.058-5.852-2.361-5.88-1.988c0.646-1.614,1.292-3.228,1.938-4.842c-0.724,1.583-1.369,3.197-1.938,4.842
				c-0.284,1.838-0.288,3.675-0.011,5.511c0.197,1.34,0.781,2.466,1.754,3.381c0.493,0.614,5.759-2.098,5.927-2.169
				c1.526-0.653,3.038-1.342,4.534-2.062c0.474-0.141,0.837-0.408,1.092-0.8c1.022-1.927,2.415-4.12,2.858-6.239
				c0.754-3.61,1.063-7.163,1.152-10.846c0.101-4.17-0.561-8.247-1.235-12.342c-1.016-6.179-2.419-12.262-3.326-18.463
				c-0.47,0.205-0.838,0.542-1.103,1.011c-1.135,1.452-2.241,2.926-3.317,4.423c-1.094,1.484-2.157,2.99-3.189,4.517
				C434.102,252.576,433.895,253.03,433.845,253.541z"/>
			<path opacity="0.1091" d="M433.932,255.475c1.319,6.465,3.089,12.809,4.469,19.262c1.5,7.022,0.696,14.113-2.868,20.315
				c1-1.246,1.999-2.491,2.998-3.737c-1.341,1.525-2.682,3.052-4.023,4.577c1.875-1.832,3.751-3.665,5.627-5.497
				c-2.422,2.024-4.846,4.05-7.268,6.076c2.303-1.681,4.605-3.361,6.907-5.041c-3.131,1.081-6.263,2.16-9.396,3.241
				c2.151-0.564,4.3-1.128,6.45-1.692c-1.092-0.504-3.888-6.791-3.921-6.878c0.136,0.461,0.271,0.922,0.407,1.383
				c-0.277-2.018-0.554-4.036-0.831-6.054c0.047,0.342-0.331-2.447-0.707-1.515c-1.005,2.486-1.895,4.938-2.683,7.502
				c-0.368,1.848-0.419,3.704-0.155,5.566c0.209,1.459,0.857,2.673,1.942,3.644c1.037,1.258,2.213,0.515,3.396,0.15
				c0.676-0.441,1.292-0.957,1.847-1.549c1.122-1.059,2.226-2.137,3.309-3.232c3.722-3.776,4.157-9.25,4.55-14.296
				c0.332-4.253-0.376-8.365-1.034-12.538c-0.569-3.179-1.233-6.339-1.993-9.479c-0.67-3.028-1.215-6.08-1.634-9.154
				c-0.374,0.136-0.646,0.397-0.821,0.785c-0.763,1.145-1.497,2.309-2.197,3.494c-0.72,1.173-1.408,2.367-2.062,3.576
				C433.98,254.719,433.878,255.082,433.932,255.475z"/>
			<path opacity="0.1091" d="M432.17,259.53c2.789,12.44,9.447,27.027,1.471,38.869c0.416-0.515,0.829-1.028,1.243-1.543
				c-2.8,2.345-4.836,2.202-6.107-0.425c-0.361-0.826-0.722-1.652-1.083-2.479c-0.612-5.837,0.772-10.845,4.152-15.023
				c0.246-0.361-0.533-0.268-0.659-0.067c-1.212,1.775-2.297,3.626-3.252,5.553c-0.471,0.946-0.919,1.901-1.347,2.868
				c-0.275,1.855-0.975,5.271-0.497,7.208c0.174,1.937,0.857,3.665,2.05,5.185c0.511,0.613,1.107,1.102,1.792,1.463
				c1.632,0.258,2.853-1.046,3.921-1.935c1.028-0.854,1.879-2.531,2.534-3.55c1.458-2.267,1.963-5.043,2.558-7.617
				c0.939-4.072,0.271-8.166-0.229-12.261c-0.641-3.225-1.396-6.425-2.262-9.597c-0.947-3.073-1.756-6.181-2.428-9.326
				c-0.152-0.644-0.836,0.424-0.864,0.469C432.862,257.812,432.027,258.894,432.17,259.53z"/>
		</g>
	</g>
</g>
<g>
	<g>
		<g>
			<path opacity="0.1091" d="M413.512,306.984c1.445,2.235,3.179,4.217,5.204,5.947c2.044,1.759,4.283,3.222,6.714,4.391
				c4.875,2.748,10.656,2.924,16.06,2.724c2.855-0.367,5.604-1.124,8.245-2.27c2.778-1.312,5.321-2.98,7.632-5.01
				c2.462-2.323,4.591-4.923,6.386-7.796c1.912-3.312,3.442-6.789,4.595-10.437c0.09-0.238-6.217,0.314-6.068,0.298
				c-1.591,0.167-3.175,0.37-4.755,0.61c-0.479-0.005-0.888,0.141-1.23,0.437c-0.976,2.575-2.337,4.924-4.083,7.049
				c-1.353,1.835-3.006,3.332-4.965,4.492c-3.224,2.361-7.206,2.792-11.049,2.663c-4.126-0.137-7.784-2.057-11.189-4.188
				c-3.775-2.362-6.475-6.343-8.802-10.016c-0.328,0.277-0.519,0.642-0.572,1.094c-0.417,1.448-0.797,2.904-1.142,4.37
				c-0.366,1.461-0.695,2.93-0.988,4.406C413.345,306.176,413.348,306.588,413.512,306.984z"/>
			<path opacity="0.1091" d="M413.929,309.194c1.464,2.261,3.221,4.265,5.271,6.012c2.088,1.778,4.374,3.255,6.853,4.43
				c4.99,2.781,10.892,2.905,16.401,2.652c2.915-0.411,5.715-1.218,8.403-2.421c2.813-1.384,5.384-3.127,7.712-5.23
				c2.454-2.405,4.57-5.081,6.348-8.025c1.863-3.371,3.35-6.903,4.457-10.594c0.124-0.349-6.048-0.451-5.897-0.449
				c-0.359-0.005-5.535-0.51-5.906,0.304c-0.978,2.716-2.347,5.216-4.108,7.498c-1.394,1.97-3.102,3.609-5.124,4.919
				c-3.318,2.61-7.543,3.174-11.596,3.173c-4.277-0.002-8.151-1.962-11.716-4.085c-3.934-2.343-6.719-6.409-9.11-10.172
				c-0.314,0.327-0.482,0.729-0.502,1.209c-0.324,1.567-0.612,3.143-0.862,4.725c-0.272,1.578-0.508,3.162-0.707,4.751
				C413.709,308.349,413.736,308.785,413.929,309.194z"/>
			<path opacity="0.1091" d="M412.146,310.08c0.915,0.874,1.831,1.748,2.748,2.622c2.249,1.575,4.484,3.171,6.703,4.789
				c2.071,1.491,5.691,3.055,8.165,3.575c5.409,1.136,3.135,0.828,8.703,1.158c3.433,0.202,5.881-0.619,9.156-1.418
				c1.621-0.394,3.251-0.98,4.663-1.849c2.738-1.682,6.104-3.479,8.249-5.959c4.496-5.197,2.685-2.806,6.56-8.731
				c2.047-3.131,3.402-7.956,4.561-11.424c0.272-0.816-1.89-0.618-2.017-0.221c-15.748,26.177-31.552,33.989-47.407,23.437
				c-1.145-0.856-2.29-1.712-3.434-2.567c-2.205-1.137-4.229-2.534-6.069-4.196C412.235,308.905,411.806,309.757,412.146,310.08z"/>
			<path opacity="0.1091" d="M412.348,314.588c1.506,2.209,3.304,4.146,5.396,5.812c1.1,0.89,2.249,1.716,3.446,2.479
				c1.216,0.876,2.536,1.586,3.956,2.132c3.993,2.12,8.651,2.484,13.044,2.807c3.163,0.046,6.253-0.399,9.276-1.334
				c3.222-0.908,6.186-2.349,8.893-4.32c2.966-2.027,5.499-4.501,7.6-7.417c3.967-4.594,5.798-10.646,7.665-16.264
				c0.188-0.562-1.559-1.241-1.755-0.698c-0.689,1.91-1.38,3.82-2.07,5.731c-1.405,3.434-3.279,6.587-5.625,9.459
				c-2.922,4.158-7.161,6.464-11.513,8.773c-1.503,0.444-3.008,0.889-4.512,1.335c-2.957,0.728-5.95,0.957-8.981,0.688
				c-2.899-0.172-5.709-0.762-8.433-1.767c-6.505-2.336-11.578-6.2-15.217-11.596c-0.443-0.578-0.708,0.876-0.733,0.98
				C412.648,311.954,411.914,314.044,412.348,314.588z"/>
			<path opacity="0.1091" d="M413.323,309.978c1.477,2.255,3.249,4.25,5.313,5.983c2.103,1.767,4.398,3.229,6.887,4.391
				c5.002,2.743,10.904,2.792,16.4,2.481c2.891-0.459,5.669-1.301,8.331-2.524c2.764-1.424,5.29-3.188,7.578-5.295
				c2.389-2.418,4.451-5.088,6.188-8.012c1.802-3.348,3.244-6.847,4.324-10.495c0.134-0.38-6.569-0.901-6.42-0.891
				c-0.276-0.021-6.113-0.929-6.479-0.138c-0.912,2.528-2.215,4.833-3.909,6.916c-1.276,1.817-2.865,3.3-4.764,4.445
				c-3.132,2.348-6.973,2.805-10.739,2.689c-4.069-0.124-7.673-2.044-11.019-4.158c-3.771-2.382-6.431-6.409-8.726-10.103
				c-0.353,0.42-0.554,0.914-0.604,1.482c-0.453,1.925-0.869,3.858-1.25,5.797c-0.401,1.937-0.767,3.88-1.097,5.829
				C413.165,308.922,413.159,309.455,413.323,309.978z"/>
			<path opacity="0.1091" d="M413.67,307.757c1.455,2.242,3.2,4.228,5.235,5.961c2.058,1.764,4.31,3.23,6.756,4.401
				c4.905,2.756,10.72,2.906,16.148,2.688c2.865-0.387,5.624-1.162,8.274-2.322c2.775-1.338,5.318-3.029,7.625-5.072
				c2.442-2.348,4.555-4.962,6.339-7.846c1.878-3.317,3.386-6.797,4.521-10.438c0.1-0.27-6.643-0.054-6.483-0.062
				c-1.704,0.073-3.406,0.183-5.104,0.328c-0.504-0.034-0.951,0.087-1.341,0.364c-0.95,2.521-2.284,4.818-4.004,6.887
				c-1.31,1.796-2.923,3.252-4.84,4.37c-3.161,2.295-7.026,2.702-10.784,2.548c-8.834-0.364-15.353-7.32-19.709-14.275
				c-0.335,0.333-0.523,0.749-0.567,1.244c-0.409,1.629-0.781,3.267-1.117,4.912c-0.357,1.642-0.678,3.29-0.963,4.945
				C413.494,306.861,413.499,307.316,413.67,307.757z"/>
			<path opacity="0.1091" d="M412.698,312.103c1.482,2.241,3.261,4.215,5.337,5.921c2.145,1.784,4.487,3.254,7.027,4.411
				c5.166,2.782,11.185,2.868,16.847,2.543c3.008-0.438,5.893-1.296,8.652-2.569c2.915-1.437,5.572-3.25,7.974-5.439
				c2.562-2.491,4.769-5.265,6.617-8.324c1.955-3.49,3.511-7.151,4.665-10.982c0.169-0.462-2.842-0.538-2.808-0.537
				c-0.373-0.021-2.564-0.398-2.85,0.218c-1.277,3.324-2.948,6.438-5.012,9.338c-1.838,2.439-3.993,4.553-6.468,6.338
				c-3.977,3.336-9.416,4.173-14.374,4.444c-4.872,0.268-9.52-1.818-13.709-3.998c-4.318-2.248-7.38-6.28-9.999-10.219
				c-0.291,0.197-0.455,0.485-0.49,0.864c-0.313,1.153-0.588,2.314-0.829,3.484C413.127,308.309,412.069,311.289,412.698,312.103z"
				/>
			<path opacity="0.1091" d="M413.249,310.65c1.614,2.18,3.498,4.095,5.651,5.743c2.262,1.808,4.711,3.308,7.348,4.502
				c1.725,0.914,6.755,2.321,8.694,2.435c3.038,0.38,6.071,0.352,9.101-0.084c4.877-0.371,9.271-3.025,13.304-5.491
				c2.896-2.03,5.378-4.48,7.449-7.35c3.865-4.509,5.67-10.487,7.487-15.986c0.089-0.27-2.811-0.48-3.069,0.309
				c-0.599,1.821-1.197,3.642-1.796,5.462c-1.269,3.254-2.93,6.295-4.982,9.12c-2.614,4.117-6.703,6.635-10.746,9.096
				c-3.763,2.29-8.555,2.628-12.797,2.877c-10.382,0.608-18.613-5.607-24.928-12.58C413.444,308.126,412.928,310.274,413.249,310.65
				z"/>
			<path opacity="0.1091" d="M413.373,312.054c1.481,2.255,3.258,4.244,5.332,5.97c2.128,1.783,4.456,3.256,6.979,4.416
				c5.101,2.771,11.091,2.816,16.684,2.47c2.96-0.461,5.796-1.328,8.509-2.604c2.843-1.45,5.43-3.265,7.763-5.444
				c2.466-2.477,4.585-5.221,6.356-8.234c1.846-3.437,3.314-7.028,4.405-10.775c0.156-0.444-4.836-0.92-4.743-0.91
				c-0.281-0.031-4.5-0.86-4.829-0.161c-1.125,2.932-2.641,5.644-4.548,8.135c-1.574,2.117-3.462,3.903-5.662,5.357
				c-3.561,2.81-8.188,3.43-12.539,3.487c-4.457,0.058-8.558-1.949-12.306-4.101c-4.018-2.304-6.845-6.359-9.258-10.162
				c-0.321,0.347-0.494,0.769-0.519,1.267c-0.345,1.644-0.652,3.292-0.925,4.948c-0.293,1.654-0.549,3.312-0.77,4.976
				C413.162,311.165,413.184,311.621,413.373,312.054z"/>
			<path opacity="0.1091" d="M413.361,308.815c1.466,2.248,3.224,4.236,5.273,5.968c2.081,1.763,4.353,3.224,6.819,4.387
				c4.948,2.742,10.802,2.837,16.255,2.57c2.874-0.425,5.636-1.232,8.287-2.423c2.763-1.377,5.292-3.1,7.584-5.169
				c2.409-2.375,4.492-5.01,6.249-7.903c1.837-3.323,3.31-6.802,4.415-10.437c0.121-0.329-6.552-0.481-6.395-0.479
				c-1.686-0.037-3.373-0.037-5.059-0.002c-0.497-0.067-0.945,0.025-1.347,0.277c-0.928,2.512-2.244,4.8-3.948,6.862
				c-1.286,1.8-2.879,3.26-4.779,4.384c-3.136,2.309-6.963,2.743-10.713,2.607c-4.058-0.146-7.64-2.057-10.978-4.175
				c-3.75-2.381-6.408-6.388-8.7-10.063c-0.349,0.374-0.549,0.827-0.602,1.36c-0.453,1.777-0.869,3.562-1.25,5.356
				c-0.4,1.79-0.765,3.586-1.093,5.39C413.207,307.834,413.199,308.331,413.361,308.815z"/>
			<path opacity="0.1091" d="M413.809,311.028c1.473,2.245,3.239,4.229,5.298,5.952c2.119,1.785,4.435,3.264,6.945,4.435
				c5.081,2.79,11.062,2.889,16.652,2.591c2.967-0.427,5.813-1.266,8.538-2.517c2.867-1.416,5.478-3.207,7.831-5.371
				c2.499-2.457,4.646-5.193,6.437-8.208c1.874-3.437,3.365-7.034,4.474-10.791c0.146-0.41-4.809-0.585-4.696-0.579
				c-0.341-0.016-4.394-0.56-4.729,0.173c-1.114,2.991-2.621,5.769-4.521,8.332c-1.589,2.18-3.497,4.033-5.718,5.56
				c-3.604,2.938-8.366,3.63-12.818,3.758c-4.537,0.132-8.754-1.878-12.597-4.019c-4.083-2.277-6.977-6.337-9.442-10.155
				c-0.299,0.286-0.456,0.648-0.468,1.091c-0.281,1.417-0.524,2.841-0.732,4.272c-0.228,1.427-0.42,2.859-0.576,4.296
				C413.567,310.272,413.608,310.666,413.809,311.028z"/>
			<path opacity="0.1091" d="M412.93,315.26c2.588,3.262,5.327,6.484,9.103,8.465c2.501,1.539,5.166,2.707,7.993,3.502
				c2.907,0.85,5.874,1.27,8.903,1.257c3.156,0.03,6.239-0.431,9.249-1.384c3.2-0.934,6.139-2.393,8.816-4.378
				c2.928-2.069,5.448-4.556,7.559-7.456c3.973-4.602,5.796-10.658,7.658-16.284c0.188-0.565-1.494-1.252-1.689-0.715
				c-0.695,1.916-1.392,3.83-2.086,5.746c-1.413,3.449-3.306,6.61-5.678,9.482c-2.059,2.64-4.501,4.855-7.326,6.646
				c-2.579,1.781-5.399,3.001-8.462,3.659c-4.353,1.389-8.874,0.845-13.293,0.337c-5.466-1.107-10.414-3.487-14.844-7.14
				c-1.906-1.631-3.558-3.489-4.953-5.575c-0.433-0.561-0.663,0.823-0.68,0.909C413.084,312.896,412.507,314.727,412.93,315.26z"/>
		</g>
	</g>
</g>
</svg>
